<svg xmlns="http://www.w3.org/2000/svg" width="64" height="64"><defs><linearGradient id="sky" y1="100%" x2="0%"><stop offset=".1" stop-color="#A9D2E0"/><stop offset=".9" stop-color="#93ECF7"/></linearGradient></defs><rect width="64" height="37" x="0" y="0" fill="url(#sky)"/><path d="M-.27 27.79l.89-3.32.64 1.92.58-1.5.55.98.94-2.79 1.02 4.53 1.02-1.61.28 1.73 1.76-3.27.14 3.73 1.5.22.98-1.11.05.89.95-1.19.22 2.11 1.33.69 1.17-.75-.16 1.19" fill="#28913D" stroke-width=".3" stroke="#194F32"/><rect width="64" height="5" y="33" fill="#5C86BE"/><g><path id="hill1" d="M-1 28.25c12.5-2.75 16.5 7 34.5 7.75H66.25V37.75H-1"/><use href="#hill1" fill="#479263" transform="translate(0-.4)"/><use href="#hill1" fill="#FFE4B6"/><use href="#hill1" fill="#6EB779" transform="translate(0 .5)"/><use href="#hill1" fill="#3DB45C" transform="translate(0 2.8)"/><path d="M8.21 33.26l.418.269.008-.631.446.631.355-.567.128.752.553-.539.064.922.652-.284-.092.567" stroke-width=".3" fill="none" stroke="#3F865B" stroke-linecap="round"/></g><g fill="#1B9A37"><path id="bush" d="M49.5 37q-1.25-1 1.25-.75-.75-.75-.75-1.5 1-.25 1.75.25-.5-1.25-.25-1.5.75 0 1.5.75-.25-1.5.25-1.75.75.5 1 1.5.25-.75 1-1.25.5.5.25 1.75.75-.75 1.5-.75.25.75-.5 2 .75-.25 1.25.25 0-1.25 1-1.75.75 1 .25 2 1-.25 1.75.25 0 .5-.75.75"/><path d="M50.2 35.44q.751-.515 2.33.24-1.307-2.325.98-.542-.675-3.174.598-.303.993-2.522.89.383 2.124-2.507.733.979 1.386-.453 2.197.285.187-1.893.556-1.195.216.329-.069 1.298 1.809-.462 1.583.32L60.6 36.9l.094-.442-1.593-.408.074-1.082-.423-.668-.797.585-.236.948-1.121-.24.512-1.805-1.51.418-.319-1.44-1.033.84-1.022-1.12-.428 1.445-1.288-.447-.02 1.288-1.558.014M49.554 36.902q-.269-.521 1.325-.476l-1.832-.145" fill="#77D09B"/><use href="#bush" fill="none" stroke="#1C6233" stroke-width=".4"/></g><g><path id="grass" d="M0 37h22.5q-.5-1.5-3.25-1.5.25-.5 2.75-.5-1.5-1.25-3-1.25 1.75-1.5 4.25 1.5 1.25-1.5 3-1-2.5 1-2 2.75H66V41H-4V37Z"/><use href="#grass" fill="#216E3B"/><path d="M20.81 35.63q-.238-.302.657-.52l-1.818.256M20.64 34.07q.728-.311 1.476.157-1.311-1.295-2.721-.622M24.045 34.598q.862-.079.862.232l.908-.505q-.984-.209-1.575.09" fill="#81D0A4" stroke-linecap="round"/><use href="#grass" fill="none" stroke="#174425" stroke-width=".4"/></g><rect width="64" height="28" x="0" y="40" fill="#56B75D"/><path d="M-3.5 43.75l11.5 0-.75-.75 28-1.5 2.5 1.5 17-1.5 3 1.5 7-1V58.75l-6 2-3-1-21.5 2-2-2-18.25-.5-1.25 1.5-3-1.5-9.5.5-2 1-4.5-1M3.75 61.75" fill="#FFE4B6"/><path d="M3 49l5.25-1.25 2.75 1.75-7.25.5M23.5 46l1.5.5-1 1M44.25 49.25l1.75-1.5 6.5-.75 1 2.5-2.5.5" fill="#56B75D"/><path d="M.75 65l8.25-2.25 3.5 2 3.75-1.25 14.25-.75 1.25 2.5 22-2.25 2.5.75 8.5-1V76.25" fill="#216E3B"/><g fill="#80685C"><path id="rock1" d="M9.5 41.5l-.25-.5.75-1.25.5-.25 2.25-.25.5.25.5 1.25-.5.75Z"/><path d="M9.645 40.406l.166.149 2.243-.105 1.237-.961-.674-.222-2.503.423" fill="#BB9479"/><use href="#rock1" fill="none" stroke="#674F48" stroke-width=".3" stroke-linejoin="round"/></g><path d="M32.5 9.5c-1 .75.25 1.5.75 1.5.25 1.25 2.5 1.25 3.75 3.25 1 1.5 3.75 3 8.5 3 6 0 7.75-1.75 10-1.75 2 0 3.75-.75 4.5-1.25.75-.5 2.5-1.5 1.75-3" fill="#A3B7BE"/><path d="M32.5 9.5c-1.75 1.75 7.75 1.25 9.25 3.25q3 2.75 13.5.5c1.5-.5 7.5 0 6.5-2-.5-1-3.75-1-4.75-.75 1.25-4.75-6.25-5-9-4-4.5 1.25-5.5-2.75-10.25-.75-1.5.75-1.5 1.5-2 2.5-.75 1.25-2.25.5-3.25 1.25" fill="#FFF"/><path d="M44 40.25l.25-1 .25 1.25.5-1 .5.75.25-1 .25 1.25.25-.75.25.5.25-.75.5.75.25-.5.75.5" fill="#56B75D"/></svg>