<svg xmlns="http://www.w3.org/2000/svg" width="32" height="16"><path d="M4 2.5q5.25-.75 11.5-.375 3.625 0 10.125 0 1.75-.25 3.25 1c1.625 2 .375 1.875 1.5 6.75q.375 1.625-2.25 4.25c-1 1.5-11.625.25-13 .625q-5.375.625-11 0-1.75-.5-3-2c-.75-1.75.75-9.75 1.75-9.75z" stroke="#000" fill="#E09385" stroke-width=".8"/><g fill="none" stroke="#000" stroke-width=".5" stroke-linecap="round" stroke-linejoin="round"><path d="M3.75 6l1.25-2.5 1 2.75m-1.625-1.25 1.125.125M8.375 5c-1.5-1.25-2.125 2.125 0 1m0 .5.25-3.25M10.875 5.125c-1.5-1.25-2.125 2.125 0 1m0 .5.25-3.25M23.25 4l-.125 3.25m-.875-1.75 1.875.125M25.625 6c-.875-.25-1.25 1.25-.125 1.5 1 .125 1.125-1.375.125-1.5"/><path d="M11.25 12.875l.125-4.375c2.125 0 2.5 2.125 0 2.125l1.875 2.25M14.875 12.875l.125-4 1.875.125m-1.75 1.875 1.5.125m-1.75 1.875 1.75.125M18.125 13.125l.25-4.125c2.625-.125 2.5 4.625-.25 4.125" stroke-width=".7" stroke="#462023"/></g><path d="M21 3.25q3 .25 5.625.125s1.75-.5 1.75 2.75" fill="none" stroke="#ECC9CC" stroke-linecap="round" stroke-opacity=".8"/><path d="M2.125 10.5q-.125 1.375.375 1.875.875 1.125 2.75 1.25" fill="none" stroke-opacity=".8" stroke-linecap="round" stroke-linejoin="round" stroke="#5F3535"/></svg>