<svg xmlns="http://www.w3.org/2000/svg" width="32" height="16"><path d="M4 2.5q1.625-.75 11.5-.375 3.5.375 10.125 0 1.75-.25 3.25 1c1.25 2 1.125 1.875 1.5 6.75q-.25 2.75-2.25 4.25c-1.125 1.125-11.625 1-13 .625q-4.875-.625-11 0-2.375-.25-3-2c-1.375-4.625.375-8.875 2.875-10.25z" stroke="#000" fill="#9BD78F" stroke-width=".8"/><g fill="none" stroke="#000" stroke-width=".5" stroke-linecap="round" stroke-linejoin="round"><path d="M3.75 6l1.25-2.5 1 2.75m-1.625-1.25 1.125.125M8.375 5c-1.5-1.25-2.125 2.125 0 1m0 .5.25-3.25M10.875 5.125c-1.5-1.25-2.125 2.125 0 1m0 .5.25-3.25M23.25 4l-.125 3.25m-.875-1.75 1.875.125M25.625 6c-.875-.25-1.25 1.25-.125 1.5 1 .125 1.125-1.375.125-1.5"/><path d="M9.125 8.625c-2.625-.625-3.25 3.875-1.125 4q1.125 0 1-1.125v1.25M11 12.875l.125-4c2.5.125 2.625 1.75 0 2l1.875 2.125M14.375 13.125l.125-4.125 2.25.125m-2.25 1.875 1.625.125m-1.75 2 1.875.125M18 13.375l.125-4.125 2.25.125m-2.25 1.875 1.625.125m-1.75 2 1.875.125M21.875 13.625l.125-4.25 2.5 4.25.25-4.25" stroke-width=".7" stroke="#21361E"/></g><path d="M20.625 3.5q3 .125 5.625-.25s1.75-.5 2.375 2.75" fill="none" stroke="#F2FFE6" stroke-linecap="round" stroke-opacity=".8"/><path d="M2.125 10.5q-.125 1.375.375 1.875 1 1.375 2.875.875" fill="none" stroke-opacity=".8" stroke-linecap="round" stroke-linejoin="round" stroke="#39783A"/></svg>