<svg xmlns="http://www.w3.org/2000/svg" width="32" height="16"><path d="M3.75 2.125q1.625-.75 11.75-.25 3.5.375 10.25.5 2.25.125 3.25 1c1.25 2 1.125 1.875.625 6.75q-.125 2.625-1.75 4.375c-1.125 1.125-11.625 1-13 .5q-.875-.125-10.875.375-1.625.125-2.75-2c-1.375-4.625-.625-10.25 2.5-11.25z" stroke="#000" fill="#A98CE2" stroke-width=".8"/><g fill="none" stroke="#000" stroke-width=".5" stroke-linecap="round" stroke-linejoin="round"><path d="M3.75 6l1.25-2.5 1 2.75m-1.625-1.25 1.125.125M8.375 5c-1.5-1.25-2.125 2.125 0 1m0 .5.25-3.25M10.875 5.125c-1.5-1.25-2.125 2.125 0 1m0 .5.25-3.25M23.25 4l-.125 3.25m-.875-1.75 1.875.125M25.625 6c-.875-.25-1.25 1.25-.125 1.5 1 .125 1.125-1.375.125-1.5"/><path d="M8.125 13.25l.125-4.625c2.875.125 2.875 2.125 0 2.375 2.875.125 2.75 2.375-.125 2.25M12.5 8.75l-.125 4.5 2.375.125M16.375 9c-1 6.25 3 6 2.5.25M20.5 13.625l.125-4.125 2.25.125m-2.25 1.875 1.625.125m-1.75 2 1.875.125" stroke-width=".7" stroke="#3E3849"/></g><path d="M21.625 3.375q3-.125 4.75.25s2.75.625 2.375 2.75" fill="none" stroke="#C9D8FF" stroke-linecap="round" stroke-opacity=".8"/><path d="M2.125 11.5q0 1.25.375 1.875 1 1.25 2.875.875" fill="none" stroke-opacity=".8" stroke-linecap="round" stroke-linejoin="round" stroke="#0B0C2D"/></svg>