<svg xmlns="http://www.w3.org/2000/svg" width="32" height="16"><path d="M3.75 2.125q1.375.5 11.875.25 4.375-.375 10.125 0 2.25.125 2.875 1c1.25 2 1.625 1.75 1 6.75q-1 3.75-1.75 4.375c-1.625 1.125-11.25.75-13.125.625q-1.125 0-10.875.25-2.25-.625-2.75-2c-1.125-4.625-.25-11.625 2.625-11.25z" stroke="#000" fill="#F1D664" stroke-width=".8"/><g fill="none" stroke="#000" stroke-width=".5" stroke-linecap="round" stroke-linejoin="round"><path d="M3.75 6l1.25-2.5 1 2.75m-1.625-1.25 1.125.125M8.375 5c-1.5-1.25-2.125 2.125 0 1m0 .5.25-3.25M10.875 5.125c-1.5-1.25-2.125 2.125 0 1m0 .5.25-3.25M23.25 4l-.125 3.25m-.875-1.75 1.875.125M25.625 6c-.875-.25-1.25 1.25-.125 1.5 1 .125 1.125-1.375.125-1.5"/><path d="M4.5 13.75l.125-2-1-2.375m1 2.375 1.25-2.25M11.25 9.375l-.125 4.5 2.375.125M7.25 13.625l.125-4.125 2 .125m-2 1.875 1.625.125m-1.75 2 1.875.125M15.125 9.25l-.125 4.625 2.5.125M20.5 9.5c-2.625-.5-3 4.5-.5 4.25 2.25-.125 2.625-4 .5-4.25M23 9.5l.875 4.25 1.25-2.375 1 2.5 1.375-4.125" stroke-width=".7" stroke="#484209"/></g><path d="M21.625 3.375q3-.125 4.75.25s2.75.625 2.375 2.75" fill="none" stroke="#FFF1C9" stroke-linecap="round" stroke-opacity=".8"/><path d="M2.125 11.5q0 1.25.375 1.875 1 1.25 2.875.875" fill="none" stroke-opacity=".8" stroke-linecap="round" stroke-linejoin="round" stroke="#5C5012"/></svg>