<svg xmlns="http://www.w3.org/2000/svg" width="16" height="16"><path d="M7.5.5c4.5 0 7.25 4 7.25 7.5-.25 4.75-3 6.5-6.75 7-4.5.5-7.25-3.75-7-7.75-.25-3.75 3.75-6.5 6.5-6.75Z" fill="#BB6A7A" stroke="#000" stroke-width=".8"/><g stroke="#000" fill="none" stroke-linecap="round" stroke-linejoin="round" stroke-width=".9"><path d="M3 4.75h9.5"/><path d="M4.25 4.75v7c0 .5523.4477 1 1 1h5c.5523 0 1-.4477 1-1v-7"/><path d="M5.75 4.75v-1c0-.5523.4477-1 1-1h2c.5523 0 1 .4477 1 1v1"/><path d="M8.75 7.25v3m-2-3v3"/></g><path d="M7.75 1.75c2-.25 4.25 1.5 5 3.5" fill="none" stroke="#EBC9D4" stroke-linecap="round" stroke-opacity=".9"/></svg>